# xmcd CD database file
#
# Track frame offsets:
#	150
#	23879
#	41213
#	59269
#	74858
#	90601
#	103388
#	130228
#	147224
#	159581
#	176015
#	197084
#
# Disc length: 2925 seconds
#
# Revision: 1
# Processed by: cddbd v1.5.2PL0 Copyright (c) Steve Scherf et al.
# Submitted via: CDex 1.79
#
DISCID=b70b6b0c
DTITLE=J.J. Band - Good day for the blues
DYEAR=2003
DGENRE=Blues
TTITLE0=Good day for the blues
TTITLE1=Just can't loose
TTITLE2=When you love someone
TTITLE3=Kiedy byem maym chopcem
TTITLE4=Kansas city
TTITLE5=Feelin' alright
TTITLE6=Wonderful tonight
TTITLE7=Lucky guy
TTITLE8=Boogie woogie papa
TTITLE9=Feel like a man
TTITLE10=Pretty woman
TTITLE11=Guitar and Harp
EXTD=YEAR: 2003
EXTT0=
EXTT1=
EXTT2=
EXTT3=
EXTT4=
EXTT5=
EXTT6=
EXTT7=
EXTT8=
EXTT9=
EXTT10=
EXTT11=
PLAYORDER=
